# xmcd
#
# Track frame offsets:
#	150
#	14239
#	28670
#	42185
#	56880
#	69767
#	83805
#	97582
#	111224
#	123141
#	136571
#	151293
#	164163
#	178111
#	191172
#	205746
#	219903
#	234183
#	248071
#	262881
#	276780
#
# Disc length: 3881 seconds
#
# Revision: 0
# Processed by: cddbd v1.5.1PL2 Copyright (c) Steve Scherf et al.
# Submitted via: dBpowerAMP V4.0
#
DISCID=180f2715
DTITLE=Leadbelly - Midnight Special
DYEAR=1900
DGENRE=Blues
TTITLE0=Frankie And Albert (Completion)
TTITLE1=Poor Howard/Green Corn
TTITLE2=Looky Look Yonder/Black Betty/Yallow Women's Door Bells
TTITLE3=The Bourgeois Blues
TTITLE4=Frankie And Albert (First Half)
TTITLE5=The Boll Weevil
TTITLE6=Pick A Bale of Cooton
TTITLE7=The Gallis Pole
TTITLE8=Fannin Street
TTITLE9=Roberta
TTITLE10=Ain't Goin' Down To The Well No More
TTITLE11=De Kalb Blues
TTITLE12=Alabama Bound
TTITLE13=Good Morning Blues
TTITLE14=I'm On My Last Go Round
TTITLE15=Red Cross Store Blues
TTITLE16=T.B. Blues
TTITLE17=Midnight Special
TTITLE18=Sail On, Little Girl, Sail On
TTITLE19=Leaving Blues
TTITLE20=Alberta
EXTD=
EXTT0=
EXTT1=
EXTT2=
EXTT3=
EXTT4=
EXTT5=
EXTT6=
EXTT7=
EXTT8=
EXTT9=
EXTT10=
EXTT11=
EXTT12=
EXTT13=
EXTT14=
EXTT15=
EXTT16=
EXTT17=
EXTT18=
EXTT19=
EXTT20=
PLAYORDER=
